HIERARCHY
ROOT Hips
{
	OFFSET 0.000000 0.000000 0.000000
	CHANNELS 6 Xposition Yposition Zposition Zrotation Yrotation Xrotation
	JOINT Spine
	{
		OFFSET -0.000000 4.110450 0.000011
		CHANNELS 3 Zrotation Yrotation Xrotation
		JOINT Spine1
		{
			OFFSET 0.000002 4.048012 -0.713759
			CHANNELS 3 Zrotation Yrotation Xrotation
			JOINT Spine2
			{
				OFFSET 0.000001 4.094810 -0.358239
				CHANNELS 3 Zrotation Yrotation Xrotation
				JOINT Spine3
				{
					OFFSET -0.000000 4.110450 0.000011
					CHANNELS 3 Zrotation Yrotation Xrotation
					JOINT Neck
					{
						OFFSET -0.000001 5.284870 0.528504
						CHANNELS 3 Zrotation Yrotation Xrotation
						JOINT Neck1
						{
							OFFSET -0.000000 1.955378 0.171075
							CHANNELS 3 Zrotation Yrotation Xrotation
							JOINT Head
							{
								OFFSET -0.000001 1.933029 0.340855
								CHANNELS 3 Zrotation Yrotation Xrotation
								End Site
								{
									OFFSET -0.000000 3.409050 0.000009
								}
							}
						}
					}
					JOINT RightShoulder
					{
						OFFSET -0.000000 3.699409 0.000010
						CHANNELS 3 Zrotation Yrotation Xrotation
						JOINT RightArm
						{
							OFFSET -6.700040 0.000000 -0.000017
							CHANNELS 3 Zrotation Yrotation Xrotation
							JOINT RightForeArm
							{
								OFFSET -11.235020 0.000000 -0.000028
								CHANNELS 3 Zrotation Yrotation Xrotation
								JOINT RightHand
								{
									OFFSET -9.568150 0.000000 -0.000024
									CHANNELS 3 Zrotation Yrotation Xrotation
									End Site
									{
										OFFSET -4.298880 0.000000 -0.041351
									}
								}
							}
						}
					}
					JOINT LeftShoulder
					{
						OFFSET -0.000000 3.699409 0.000010
						CHANNELS 3 Zrotation Yrotation Xrotation
						JOINT LeftArm
						{
							OFFSET 6.700040 0.000000 0.000017
							CHANNELS 3 Zrotation Yrotation Xrotation
							JOINT LeftForeArm
							{
								OFFSET 11.235018 0.000000 0.000028
								CHANNELS 3 Zrotation Yrotation Xrotation
								JOINT LeftHand
								{
									OFFSET 9.568150 0.000000 0.000024
									CHANNELS 3 Zrotation Yrotation Xrotation
									End Site
									{
										OFFSET 4.298880 0.000000 -0.041329
									}
								}
							}
						}
					}
				}
			}
		}
	}
	JOINT RightUpLeg
	{
		OFFSET -3.636760 0.000000 -0.000009
		CHANNELS 3 Zrotation Yrotation Xrotation
		JOINT RightLeg
		{
			OFFSET 0.000000 -16.350660 -0.000043
			CHANNELS 3 Zrotation Yrotation Xrotation
			JOINT RightFoot
			{
				OFFSET 0.000000 -15.870981 -0.000041
				CHANNELS 3 Zrotation Yrotation Xrotation
				JOINT RightToeBase
				{
					OFFSET -0.000012 -1.168873 4.577627
					CHANNELS 3 Zrotation Yrotation Xrotation
					End Site
					{
						OFFSET -0.000008 -0.000008 3.324340
					}
				}
			}
		}
	}
	JOINT LeftUpLeg
	{
		OFFSET 3.636760 0.000000 0.000009
		CHANNELS 3 Zrotation Yrotation Xrotation
		JOINT LeftLeg
		{
			OFFSET 0.000000 -16.350660 -0.000043
			CHANNELS 3 Zrotation Yrotation Xrotation
			JOINT LeftFoot
			{
				OFFSET 0.000000 -15.870981 -0.000041
				CHANNELS 3 Zrotation Yrotation Xrotation
				JOINT LeftToeBase
				{
					OFFSET -0.000012 -1.168873 4.577627
					CHANNELS 3 Zrotation Yrotation Xrotation
					End Site
					{
						OFFSET -0.000010 -0.000011 3.876270
					}
				}
			}
		}
	}
}
MOTION
Frames: 5
Frame Time: 0.008333
0.0 0.0 0.0 -31.367432 87.945325 -32.057233 -0.360491 1.071300 0.452089 -0.265770 1.098648 0.452926 0.303241 1.117170 -0.066875 0.303241 1.117170 -0.066876 -2.079517 -4.580276 -9.288068 0.069661 -4.664525 -2.177948 4.388392 -4.895360 7.534930 -2.864310 -4.080991 0.204008 21.231517 7.902231 -37.826950 0.000162 36.250099 17.751766 3.642512 -16.426436 -0.000039 -1.548904 -1.639296 0.044304 -15.630159 -11.087965 -24.895951 -0.000032 -31.661117 18.978393 -1.682988 16.369668 0.000020 0.337561 -16.482015 2.096169 0.000019 -0.000001 7.555799 13.041784 -11.858826 -3.085661 0.000006 0.000001 1.924900 -1.932897 13.383654 2.880135 0.000013 0.000000 5.059800 0.520082 12.300448 -4.052205 0.000017 -0.000002 6.800499 
0.0102 -0.000302 0.000499 -31.628379 87.940263 -32.303246 -0.351126 1.058745 0.439445 -0.257517 1.085323 0.440248 0.299909 1.103224 -0.059115 0.299909 1.103225 -0.059115 -2.144217 -4.557400 -9.498055 0.059808 -4.636489 -2.182787 4.444851 -4.884309 7.812367 -2.861510 -4.059391 0.202708 21.231937 7.944039 -37.859732 0.000168 36.261901 17.784274 3.652467 -16.417403 -0.000046 -1.557704 -1.548196 0.042104 -15.598928 -11.138960 -24.892032 -0.000034 -31.650718 18.965996 -1.656764 16.352337 -0.000036 0.348869 -16.511557 2.099846 0.000019 -0.000001 7.555399 12.913962 -11.850991 -3.123732 0.000005 -0.000001 2.079799 -1.922399 13.376296 2.881907 0.000013 -0.000001 5.062499 0.520025 12.310186 -4.068890 0.000017 -0.000002 6.827902 
0.02 -0.001 0.0008 -31.631200 87.934369 -32.292465 -0.350447 1.058266 0.427663 -0.256845 1.084763 0.428465 0.300473 1.102508 -0.055809 0.300473 1.102508 -0.055809 -2.165820 -4.555650 -9.595772 0.052928 -4.631958 -2.187424 4.456461 -4.886730 7.935460 -2.862310 -4.073992 0.203508 21.234478 7.979923 -37.898537 0.000165 36.256799 17.817170 3.661378 -16.392712 -0.000048 -1.563104 -1.515096 0.041304 -15.572626 -11.171371 -24.888453 -0.000031 -31.649717 18.958093 -1.635653 16.327646 0.000019 0.351672 -16.518842 2.103816 0.000019 -0.000000 7.551699 12.894698 -11.843263 -3.130546 0.000006 -0.000002 2.082097 -1.918042 13.372604 2.885708 0.000013 0.000000 5.063201 0.501073 12.318025 -4.086588 0.000019 -0.000002 6.827901 
0.0295 -0.001499 0.0006 -31.641838 87.933843 -32.289835 -0.349960 1.058789 0.415870 -0.256263 1.085304 0.416675 0.300815 1.102997 -0.053600 0.300815 1.102997 -0.053600 -2.184085 -4.556865 -9.660328 0.044574 -4.630688 -2.192037 4.461468 -4.890345 8.013374 -2.866610 -4.090593 0.204708 21.237399 8.000306 -37.907628 0.000166 36.265900 17.827268 3.661467 -16.388002 -0.000048 -1.561604 -1.502196 0.040904 -15.567741 -11.176728 -24.886954 -0.000035 -31.651414 19.048993 -1.587547 16.249414 -0.000039 0.348528 -16.522518 2.109631 0.000019 -0.000002 7.547100 12.927175 -11.833183 -3.141464 0.000005 0.000002 2.083800 -1.918557 13.363854 2.888723 0.000013 -0.000001 5.062901 0.494016 12.324353 -4.096336 0.000018 -0.000001 6.817102 
0.0395 -0.002499 0.0001 -31.596769 87.931473 -32.240026 -0.347546 1.059641 0.410912 -0.253853 1.085964 0.411720 0.297129 1.103516 -0.058067 0.297129 1.103516 -0.058068 -2.190849 -4.554035 -9.677071 0.040535 -4.626943 -2.193216 4.460225 -4.888023 8.033497 -2.866210 -4.099593 0.205107 21.236400 8.015118 -37.914643 0.000163 36.272696 17.828269 3.683977 -16.373995 0.000019 -1.560003 -1.494796 0.040704 -15.552790 -11.183249 -24.907361 -0.000035 -31.682413 19.018696 -1.607006 16.276590 -0.000037 0.343108 -16.514166 2.125506 0.000019 -0.000001 7.542300 12.951603 -11.831558 -3.155216 0.000004 0.000004 2.073400 -1.917388 13.361811 2.902435 0.000013 -0.000001 5.063699 0.492816 12.330650 -4.115400 0.000018 -0.000002 6.824298 
